<?xml version="1.0" encoding="UTF-8"?>
<!DOCTYPE svg PUBLIC "-//W3C//DTD SVG 1.1//EN" "http://www.w3.org/Graphics/SVG/1.1/DTD/svg11.dtd">
<svg width="160mm" height="90mm" viewBox="0 0 16000 9000" version="1.1" baseProfile="tiny" xmlns="http://www.w3.org/2000/svg" stroke-width="28.222" stroke-linejoin="round" xml:space="preserve">
 <path fill="rgb(255,255,255)" stroke="none" d="M 8144,9004 L 134,9004 134,0 16154,0 16154,9004 8144,9004 Z"/>
 <path fill="none" stroke="rgb(179,179,179)" stroke-linejoin="round" d="M 8920,7196 L 2377,7196 2377,2389 15463,2389 15463,7196 8920,7196 Z"/>
 <path fill="none" stroke="rgb(179,179,179)" stroke-linejoin="round" d="M 15463,7195 L 2377,7195"/>
 <path fill="none" stroke="rgb(179,179,179)" stroke-linejoin="round" d="M 15463,6393 L 2377,6393"/>
 <path fill="none" stroke="rgb(179,179,179)" stroke-linejoin="round" d="M 15463,5592 L 2377,5592"/>
 <path fill="none" stroke="rgb(179,179,179)" stroke-linejoin="round" d="M 15463,4791 L 2377,4791"/>
 <path fill="none" stroke="rgb(179,179,179)" stroke-linejoin="round" d="M 15463,3990 L 2377,3990"/>
 <path fill="none" stroke="rgb(179,179,179)" stroke-linejoin="round" d="M 15463,3189 L 2377,3189"/>
 <path fill="none" stroke="rgb(179,179,179)" stroke-linejoin="round" d="M 15463,2388 L 2377,2388"/>
 <path fill="none" stroke="rgb(179,179,179)" stroke-linejoin="round" d="M 2377,7345 L 2377,7195"/>
 <path fill="none" stroke="rgb(179,179,179)" stroke-linejoin="round" d="M 2377,7345 L 2377,7195"/>
 <path fill="none" stroke="rgb(179,179,179)" stroke-linejoin="round" d="M 3685,7345 L 3685,7195"/>
 <path fill="none" stroke="rgb(179,179,179)" stroke-linejoin="round" d="M 3685,7345 L 3685,7195"/>
 <path fill="none" stroke="rgb(179,179,179)" stroke-linejoin="round" d="M 4994,7345 L 4994,7195"/>
 <path fill="none" stroke="rgb(179,179,179)" stroke-linejoin="round" d="M 4994,7345 L 4994,7195"/>
 <path fill="none" stroke="rgb(179,179,179)" stroke-linejoin="round" d="M 6303,7345 L 6303,7195"/>
 <path fill="none" stroke="rgb(179,179,179)" stroke-linejoin="round" d="M 6303,7345 L 6303,7195"/>
 <path fill="none" stroke="rgb(179,179,179)" stroke-linejoin="round" d="M 7611,7345 L 7611,7195"/>
 <path fill="none" stroke="rgb(179,179,179)" stroke-linejoin="round" d="M 7611,7345 L 7611,7195"/>
 <path fill="none" stroke="rgb(179,179,179)" stroke-linejoin="round" d="M 8919,7345 L 8919,7195"/>
 <path fill="none" stroke="rgb(179,179,179)" stroke-linejoin="round" d="M 8919,7345 L 8919,7195"/>
 <path fill="none" stroke="rgb(179,179,179)" stroke-linejoin="round" d="M 10228,7345 L 10228,7195"/>
 <path fill="none" stroke="rgb(179,179,179)" stroke-linejoin="round" d="M 10228,7345 L 10228,7195"/>
 <path fill="none" stroke="rgb(179,179,179)" stroke-linejoin="round" d="M 11536,7345 L 11536,7195"/>
 <path fill="none" stroke="rgb(179,179,179)" stroke-linejoin="round" d="M 11536,7345 L 11536,7195"/>
 <path fill="none" stroke="rgb(179,179,179)" stroke-linejoin="round" d="M 12845,7345 L 12845,7195"/>
 <path fill="none" stroke="rgb(179,179,179)" stroke-linejoin="round" d="M 12845,7345 L 12845,7195"/>
 <path fill="none" stroke="rgb(179,179,179)" stroke-linejoin="round" d="M 14154,7345 L 14154,7195"/>
 <path fill="none" stroke="rgb(179,179,179)" stroke-linejoin="round" d="M 14154,7345 L 14154,7195"/>
 <path fill="none" stroke="rgb(179,179,179)" stroke-linejoin="round" d="M 15463,7345 L 15463,7195"/>
 <path fill="none" stroke="rgb(179,179,179)" stroke-linejoin="round" d="M 15463,7345 L 15463,7195"/>
 <path fill="none" stroke="rgb(179,179,179)" stroke-linejoin="round" d="M 2377,7195 L 15463,7195"/>
 <path fill="none" stroke="rgb(179,179,179)" stroke-linejoin="round" d="M 2227,7195 L 2377,7195"/>
 <path fill="none" stroke="rgb(179,179,179)" stroke-linejoin="round" d="M 2227,7195 L 2377,7195"/>
 <path fill="none" stroke="rgb(179,179,179)" stroke-linejoin="round" d="M 2227,6393 L 2377,6393"/>
 <path fill="none" stroke="rgb(179,179,179)" stroke-linejoin="round" d="M 2227,6393 L 2377,6393"/>
 <path fill="none" stroke="rgb(179,179,179)" stroke-linejoin="round" d="M 2227,5592 L 2377,5592"/>
 <path fill="none" stroke="rgb(179,179,179)" stroke-linejoin="round" d="M 2227,5592 L 2377,5592"/>
 <path fill="none" stroke="rgb(179,179,179)" stroke-linejoin="round" d="M 2227,4791 L 2377,4791"/>
 <path fill="none" stroke="rgb(179,179,179)" stroke-linejoin="round" d="M 2227,4791 L 2377,4791"/>
 <path fill="none" stroke="rgb(179,179,179)" stroke-linejoin="round" d="M 2227,3990 L 2377,3990"/>
 <path fill="none" stroke="rgb(179,179,179)" stroke-linejoin="round" d="M 2227,3990 L 2377,3990"/>
 <path fill="none" stroke="rgb(179,179,179)" stroke-linejoin="round" d="M 2227,3189 L 2377,3189"/>
 <path fill="none" stroke="rgb(179,179,179)" stroke-linejoin="round" d="M 2227,3189 L 2377,3189"/>
 <path fill="none" stroke="rgb(179,179,179)" stroke-linejoin="round" d="M 2227,2388 L 2377,2388"/>
 <path fill="none" stroke="rgb(179,179,179)" stroke-linejoin="round" d="M 2227,2388 L 2377,2388"/>
 <path fill="none" stroke="rgb(179,179,179)" stroke-linejoin="round" d="M 2377,7195 L 2377,2388"/>
 <path fill="rgb(0,69,134)" stroke="none" d="M 2377,5592 L 3685,4791 4994,4471 6303,4311 7611,4150 8919,3830 10228,3670 11536,3509 12845,3509 14154,3509 15463,3349 15463,7195 2377,7195 2377,5592 Z"/>
 <text class="TextShape"><tspan class="TextParagraph" font-family="Liberation Sans, sans-serif" font-size="353px" font-weight="400"><tspan class="TextPosition" x="2006" y="7763"><tspan fill="rgb(0,0,0)" stroke="none">2004</tspan></tspan></tspan></text>
 <text class="TextShape"><tspan class="TextParagraph" font-family="Liberation Sans, sans-serif" font-size="353px" font-weight="400"><tspan class="TextPosition" x="3314" y="7763"><tspan fill="rgb(0,0,0)" stroke="none">2005</tspan></tspan></tspan></text>
 <text class="TextShape"><tspan class="TextParagraph" font-family="Liberation Sans, sans-serif" font-size="353px" font-weight="400"><tspan class="TextPosition" x="4623" y="7763"><tspan fill="rgb(0,0,0)" stroke="none">2006</tspan></tspan></tspan></text>
 <text class="TextShape"><tspan class="TextParagraph" font-family="Liberation Sans, sans-serif" font-size="353px" font-weight="400"><tspan class="TextPosition" x="5932" y="7763"><tspan fill="rgb(0,0,0)" stroke="none">2007</tspan></tspan></tspan></text>
 <text class="TextShape"><tspan class="TextParagraph" font-family="Liberation Sans, sans-serif" font-size="353px" font-weight="400"><tspan class="TextPosition" x="7240" y="7763"><tspan fill="rgb(0,0,0)" stroke="none">2008</tspan></tspan></tspan></text>
 <text class="TextShape"><tspan class="TextParagraph" font-family="Liberation Sans, sans-serif" font-size="353px" font-weight="400"><tspan class="TextPosition" x="8549" y="7763"><tspan fill="rgb(0,0,0)" stroke="none">2009</tspan></tspan></tspan></text>
 <text class="TextShape"><tspan class="TextParagraph" font-family="Liberation Sans, sans-serif" font-size="353px" font-weight="400"><tspan class="TextPosition" x="9858" y="7763"><tspan fill="rgb(0,0,0)" stroke="none">2010</tspan></tspan></tspan></text>
 <text class="TextShape"><tspan class="TextParagraph" font-family="Liberation Sans, sans-serif" font-size="353px" font-weight="400"><tspan class="TextPosition" x="11166" y="7763"><tspan fill="rgb(0,0,0)" stroke="none">2011</tspan></tspan></tspan></text>
 <text class="TextShape"><tspan class="TextParagraph" font-family="Liberation Sans, sans-serif" font-size="353px" font-weight="400"><tspan class="TextPosition" x="12475" y="7763"><tspan fill="rgb(0,0,0)" stroke="none">2012</tspan></tspan></tspan></text>
 <text class="TextShape"><tspan class="TextParagraph" font-family="Liberation Sans, sans-serif" font-size="353px" font-weight="400"><tspan class="TextPosition" x="13784" y="7763"><tspan fill="rgb(0,0,0)" stroke="none">2013</tspan></tspan></tspan></text>
 <text class="TextShape"><tspan class="TextParagraph" font-family="Liberation Sans, sans-serif" font-size="353px" font-weight="400"><tspan class="TextPosition" x="15093" y="7763"><tspan fill="rgb(0,0,0)" stroke="none">2014</tspan></tspan></tspan></text>
 <text class="TextShape"><tspan class="TextParagraph" font-family="Liberation Sans, sans-serif" font-size="353px" font-weight="400"><tspan class="TextPosition" x="1757" y="7316"><tspan fill="rgb(0,0,0)" stroke="none">31</tspan></tspan></tspan></text>
 <text class="TextShape"><tspan class="TextParagraph" font-family="Liberation Sans, sans-serif" font-size="353px" font-weight="400"><tspan class="TextPosition" x="1466" y="6514"><tspan fill="rgb(0,0,0)" stroke="none">31.5</tspan></tspan></tspan></text>
 <text class="TextShape"><tspan class="TextParagraph" font-family="Liberation Sans, sans-serif" font-size="353px" font-weight="400"><tspan class="TextPosition" x="1757" y="5713"><tspan fill="rgb(0,0,0)" stroke="none">32</tspan></tspan></tspan></text>
 <text class="TextShape"><tspan class="TextParagraph" font-family="Liberation Sans, sans-serif" font-size="353px" font-weight="400"><tspan class="TextPosition" x="1466" y="4912"><tspan fill="rgb(0,0,0)" stroke="none">32.5</tspan></tspan></tspan></text>
 <text class="TextShape"><tspan class="TextParagraph" font-family="Liberation Sans, sans-serif" font-size="353px" font-weight="400"><tspan class="TextPosition" x="1757" y="4110"><tspan fill="rgb(0,0,0)" stroke="none">33</tspan></tspan></tspan></text>
 <text class="TextShape"><tspan class="TextParagraph" font-family="Liberation Sans, sans-serif" font-size="353px" font-weight="400"><tspan class="TextPosition" x="1466" y="3309"><tspan fill="rgb(0,0,0)" stroke="none">33.5</tspan></tspan></tspan></text>
 <text class="TextShape"><tspan class="TextParagraph" font-family="Liberation Sans, sans-serif" font-size="353px" font-weight="400"><tspan class="TextPosition" x="1757" y="2508"><tspan fill="rgb(0,0,0)" stroke="none">34</tspan></tspan></tspan></text>
 <text class="TextShape"><tspan class="TextParagraph" font-family="Liberation Sans, sans-serif" font-size="459px" font-weight="400"><tspan class="TextPosition" x="4347" y="877"><tspan fill="rgb(0,0,0)" stroke="none">Forest coverage Lithuania 2004 - 2014</tspan></tspan></tspan></text>
 <text class="TextShape"><tspan class="TextParagraph" font-family="Liberation Sans, sans-serif" font-size="388px" font-weight="400"><tspan class="TextPosition" x="5392" y="1787"><tspan fill="rgb(0,0,0)" stroke="none">According to Statistics Lithuania</tspan></tspan></tspan></text>
 <text class="TextShape"><tspan class="TextParagraph" font-family="Liberation Sans, sans-serif" font-size="318px" font-weight="400"><tspan class="TextPosition" x="8253" y="8410"><tspan fill="rgb(0,0,0)" stroke="none">Years</tspan></tspan></tspan></text>
 <text class="TextShape"><tspan class="TextParagraph" font-family="Liberation Sans, sans-serif" font-size="318px" font-weight="400"><tspan class="TextPosition" x="971" y="5612" transform="translate(971,5612) rotate(-90) translate(-971,-5612)"><tspan fill="rgb(0,0,0)" stroke="none">Per cent</tspan></tspan></tspan></text>
</svg>